<svg xmlns="http://www.w3.org/2000/svg"  viewBox="0 0 48 48" width="48px" height="48px" baseProfile="basic"><path fill="#b3e5fc" d="M39.852,29.803c0.003-0.024,0.004-0.048,0.007-0.072c0.03-0.243,0.055-0.486,0.075-0.732	C39.972,28.572,40,28.141,40,27.704c0-0.353-0.015-0.717-0.036-1.086l-0.025-0.034C39.797,24.246,39.25,21.627,38.34,19h0.007h0.001	c-0.212-0.612-0.449-1.221-0.697-1.827c-0.056-0.138-0.114-0.275-0.173-0.412c-0.229-0.542-0.471-1.079-0.728-1.61	c-0.024-0.05-0.044-0.101-0.068-0.151H36.68C33.756,9.027,29.167,4,24,4s-9.756,5.027-12.68,11h-0.004	c-0.034,0.068-0.061,0.139-0.094,0.208c-0.242,0.502-0.47,1.009-0.688,1.521c-0.067,0.157-0.133,0.313-0.197,0.471	c-0.244,0.597-0.477,1.198-0.685,1.8H9.66c-0.837,2.416-1.375,4.83-1.568,7.022l-0.016,0.019C8.027,26.613,8,27.169,8,27.704	c0,0.478,0.03,0.948,0.07,1.417l0.002-0.002c0.15,1.717,0.557,3.358,1.187,4.881H9.24c0.15,0.364,0.313,0.722,0.487,1.072	c0.172,0.345,0.356,0.682,0.551,1.013c0.002,0.003,0.003,0.006,0.005,0.009C13.082,40.83,18.176,44,24,44	c6.646,0,12.342-4.127,14.76-10h-0.001H38.74c0.548-1.32,0.918-2.732,1.109-4.201L39.852,29.803z"/><path fill="#fff" d="M18,12c0,0-6.993,5.273-6.125,16.125c0.25,3.125,4.28,4.901,4,0.125C15.635,24.16,14.5,21.75,18,12z"/></svg>